<svg width="48" height="48" viewBox="0 0 48 48" fill="none" xmlns="http://www.w3.org/2000/svg">
<path d="M36 22.5C36.8284 22.5 37.5 23.1716 37.5 24C37.5 24.8284 36.8284 25.5 36 25.5V22.5ZM9.93934 25.0607C9.35355 24.4749 9.35355 23.5251 9.93934 22.9393L19.4853 13.3934C20.0711 12.8076 21.0208 12.8076 21.6066 13.3934C22.1924 13.9792 22.1924 14.9289 21.6066 15.5147L13.1213 24L21.6066 32.4853C22.1924 33.0711 22.1924 34.0208 21.6066 34.6066C21.0208 35.1924 20.0711 35.1924 19.4853 34.6066L9.93934 25.0607ZM36 25.5H11V22.5H36V25.5Z" fill="#98694F"/>
<circle cx="24" cy="24" r="22.5" stroke="#98694F" stroke-width="3"/>
</svg>
